HIERARCHY
ROOT Root
{
  OFFSET 0.0 0.0 0.0
  CHANNELS 6 Xposition Yposition Zposition Zrotation Yrotation Xrotation
  JOINT Hips
  {
    OFFSET 0.0 100.0 0.0
    CHANNELS 6 Xposition Yposition Zposition Zrotation Yrotation Xrotation
    JOINT Spine1
    {
      OFFSET 5.003913 -0.037094 -0.013727
      CHANNELS 3 Zrotation Yrotation Xrotation
      JOINT Spine2
      {
        OFFSET 7.125363 -1e-06 0.0
        CHANNELS 3 Zrotation Yrotation Xrotation
        JOINT Chest
        {
          OFFSET 7.594027 1e-06 0.0
          CHANNELS 3 Zrotation Yrotation Xrotation
          JOINT Neck1
          {
            OFFSET 26.313086 -0.460272 -0.181672
            CHANNELS 3 Zrotation Yrotation Xrotation
            JOINT Neck2
            {
              OFFSET 8.045911 0.0 0.0
              CHANNELS 3 Zrotation Yrotation Xrotation
              JOINT Head
              {
                OFFSET 6.432774 0.0 0.0
                CHANNELS 3 Zrotation Yrotation Xrotation
                JOINT HeadEnd
                {
                  OFFSET 16.169773 0.06451 0.00362
                  CHANNELS 3 Zrotation Yrotation Xrotation
                }
                JOINT Jaw
                {
                  OFFSET 0.108741 3.12938 0.002639
                  CHANNELS 3 Zrotation Yrotation Xrotation
                }
                JOINT LeftEye
                {
                  OFFSET 4.45173 8.166359 3.206392
                  CHANNELS 3 Zrotation Yrotation Xrotation
                }
                JOINT RightEye
                {
                  OFFSET 4.436895 8.135758 -3.222429
                  CHANNELS 3 Zrotation Yrotation Xrotation
                }
              }
            }
          }
          JOINT LeftShoulder
          {
            OFFSET 23.218927 5.195579 1.621656
            CHANNELS 3 Zrotation Yrotation Xrotation
            JOINT LeftArm
            {
              OFFSET 15.902118 2e-06 -2e-06
              CHANNELS 3 Zrotation Yrotation Xrotation
              JOINT LeftForeArm
              {
                OFFSET 28.739307 0.0 -1e-06
                CHANNELS 3 Zrotation Yrotation Xrotation
                JOINT LeftHand
                {
                  OFFSET 27.093981 -4e-06 0.0
                  CHANNELS 3 Zrotation Yrotation Xrotation
                  JOINT LeftHandThumb1
                  {
                    OFFSET 2.276781 3.380274 0.83384
                    CHANNELS 3 Zrotation Yrotation Xrotation
                    JOINT LeftHandThumb2
                    {
                      OFFSET 4.705309 -1e-06 -1e-06
                      CHANNELS 3 Zrotation Yrotation Xrotation
                      JOINT LeftHandThumb3
                      {
                        OFFSET 2.798515 0.0 3e-06
                        CHANNELS 3 Zrotation Yrotation Xrotation
                        JOINT LeftHandThumbEnd
                        {
                          OFFSET 3.180793 4e-06 -4e-06
                          CHANNELS 3 Zrotation Yrotation Xrotation
                        }
                      }
                    }
                  }
                  JOINT LeftHandIndex1
                  {
                    OFFSET 3.247786 2.352677 0.137192
                    CHANNELS 3 Zrotation Yrotation Xrotation
                    JOINT LeftHandIndex2
                    {
                      OFFSET 6.367095 1e-06 0.0
                      CHANNELS 3 Zrotation Yrotation Xrotation
                      JOINT LeftHandIndex3
                      {
                        OFFSET 3.662364 0.0 0.0
                        CHANNELS 3 Zrotation Yrotation Xrotation
                        JOINT LeftHandIndex4
                        {
                          OFFSET 2.329242 4e-06 -4e-06
                          CHANNELS 3 Zrotation Yrotation Xrotation
                          JOINT LeftHandIndexEnd
                          {
                            OFFSET 2.767823 1e-06 0.0
                            CHANNELS 3 Zrotation Yrotation Xrotation
                          }
                        }
                      }
                    }
                  }
                  JOINT LeftHandMiddle1
                  {
                    OFFSET 3.163612 0.945023 -0.406112
                    CHANNELS 3 Zrotation Yrotation Xrotation
                    JOINT LeftHandMiddle2
                    {
                      OFFSET 6.276789 3e-06 0.0
                      CHANNELS 3 Zrotation Yrotation Xrotation
                      JOINT LeftHandMiddle3
                      {
                        OFFSET 4.35652 -1e-06 4e-06
                        CHANNELS 3 Zrotation Yrotation Xrotation
                        JOINT LeftHandMiddle4
                        {
                          OFFSET 2.996877 0.0 8e-06
                          CHANNELS 3 Zrotation Yrotation Xrotation
                          JOINT LeftHandMiddleEnd
                          {
                            OFFSET 2.323256 3e-06 -4e-06
                            CHANNELS 3 Zrotation Yrotation Xrotation
                          }
                        }
                      }
                    }
                  }
                  JOINT LeftHandRing1
                  {
                    OFFSET 2.882606 -0.309162 0.107445
                    CHANNELS 3 Zrotation Yrotation Xrotation
                    JOINT LeftHandRing2
                    {
                      OFFSET 6.033198 0.0 4e-06
                      CHANNELS 3 Zrotation Yrotation Xrotation
                      JOINT LeftHandRing3
                      {
                        OFFSET 4.350578 3e-06 0.0
                        CHANNELS 3 Zrotation Yrotation Xrotation
                        JOINT LeftHandRing4
                        {
                          OFFSET 2.651321 2e-06 -7e-06
                          CHANNELS 3 Zrotation Yrotation Xrotation
                          JOINT LeftHandRingEnd
                          {
                            OFFSET 1.937663 1e-06 -4e-06
                            CHANNELS 3 Zrotation Yrotation Xrotation
                          }
                        }
                      }
                    }
                  }
                  JOINT LeftHandPinky1
                  {
                    OFFSET 2.865315 -1.525436 0.575687
                    CHANNELS 3 Zrotation Yrotation Xrotation
                    JOINT LeftHandPinky2
                    {
                      OFFSET 5.54936 1e-06 -8e-06
                      CHANNELS 3 Zrotation Yrotation Xrotation
                      JOINT LeftHandPinky3
                      {
                        OFFSET 3.070974 0.0 -4e-06
                        CHANNELS 3 Zrotation Yrotation Xrotation
                        JOINT LeftHandPinky4
                        {
                          OFFSET 1.549672 1e-06 0.0
                          CHANNELS 3 Zrotation Yrotation Xrotation
                          JOINT LeftHandPinkyEnd
                          {
                            OFFSET 1.952123 0.0 0.0
                            CHANNELS 3 Zrotation Yrotation Xrotation
                          }
                        }
                      }
                    }
                  }
                }
              }
            }
          }
          JOINT RightShoulder
          {
            OFFSET 23.161716 5.296122 -1.380114
            CHANNELS 3 Zrotation Yrotation Xrotation
            JOINT RightArm
            {
              OFFSET -16.027195 -2e-06 1.1e-05
              CHANNELS 3 Zrotation Yrotation Xrotation
              JOINT RightForeArm
              {
                OFFSET -28.736639 4e-06 2e-06
                CHANNELS 3 Zrotation Yrotation Xrotation
                JOINT RightHand
                {
                  OFFSET -27.133619 6e-06 0.0
                  CHANNELS 3 Zrotation Yrotation Xrotation
                  JOINT RightHandThumb1
                  {
                    OFFSET -2.274328 -3.351035 -0.83067
                    CHANNELS 3 Zrotation Yrotation Xrotation
                    JOINT RightHandThumb2
                    {
                      OFFSET -4.703594 -3e-06 2e-06
                      CHANNELS 3 Zrotation Yrotation Xrotation
                      JOINT RightHandThumb3
                      {
                        OFFSET -2.794935 -4e-06 -3e-06
                        CHANNELS 3 Zrotation Yrotation Xrotation
                        JOINT RightHandThumbEnd
                        {
                          OFFSET -3.183852 4e-06 1e-06
                          CHANNELS 3 Zrotation Yrotation Xrotation
                        }
                      }
                    }
                  }
                  JOINT RightHandIndex1
                  {
                    OFFSET -3.253496 -2.33755 -0.127667
                    CHANNELS 3 Zrotation Yrotation Xrotation
                    JOINT RightHandIndex2
                    {
                      OFFSET -6.344434 0.0 0.0
                      CHANNELS 3 Zrotation Yrotation Xrotation
                      JOINT RightHandIndex3
                      {
                        OFFSET -3.654871 0.0 -8e-06
                        CHANNELS 3 Zrotation Yrotation Xrotation
                        JOINT RightHandIndex4
                        {
                          OFFSET -2.327586 -1e-06 0.0
                          CHANNELS 3 Zrotation Yrotation Xrotation
                          JOINT RightHandIndexEnd
                          {
                            OFFSET -2.770001 3e-06 8e-06
                            CHANNELS 3 Zrotation Yrotation Xrotation
                          }
                        }
                      }
                    }
                  }
                  JOINT RightHandMiddle1
                  {
                    OFFSET -3.168223 -0.944764 0.411762
                    CHANNELS 3 Zrotation Yrotation Xrotation
                    JOINT RightHandMiddle2
                    {
                      OFFSET -6.266691 -1e-06 -4e-06
                      CHANNELS 3 Zrotation Yrotation Xrotation
                      JOINT RightHandMiddle3
                      {
                        OFFSET -4.348901 0.0 0.0
                        CHANNELS 3 Zrotation Yrotation Xrotation
                        JOINT RightHandMiddle4
                        {
                          OFFSET -3.00024 2e-06 -4e-06
                          CHANNELS 3 Zrotation Yrotation Xrotation
                          JOINT RightHandMiddleEnd
                          {
                            OFFSET -2.321477 -4e-06 -4e-06
                            CHANNELS 3 Zrotation Yrotation Xrotation
                          }
                        }
                      }
                    }
                  }
                  JOINT RightHandRing1
                  {
                    OFFSET -2.885654 0.293261 -0.119232
                    CHANNELS 3 Zrotation Yrotation Xrotation
                    JOINT RightHandRing2
                    {
                      OFFSET -6.032835 -1e-06 -4e-06
                      CHANNELS 3 Zrotation Yrotation Xrotation
                      JOINT RightHandRing3
                      {
                        OFFSET -4.33881 0.0 -4e-06
                        CHANNELS 3 Zrotation Yrotation Xrotation
                        JOINT RightHandRing4
                        {
                          OFFSET -2.654903 -4e-06 -4e-06
                          CHANNELS 3 Zrotation Yrotation Xrotation
                          JOINT RightHandRingEnd
                          {
                            OFFSET -1.935122 0.0 4e-06
                            CHANNELS 3 Zrotation Yrotation Xrotation
                          }
                        }
                      }
                    }
                  }
                  JOINT RightHandPinky1
                  {
                    OFFSET -2.866241 1.503904 -0.60527
                    CHANNELS 3 Zrotation Yrotation Xrotation
                    JOINT RightHandPinky2
                    {
                      OFFSET -5.553177 -2e-06 0.0
                      CHANNELS 3 Zrotation Yrotation Xrotation
                      JOINT RightHandPinky3
                      {
                        OFFSET -3.062664 -1e-06 -4e-06
                        CHANNELS 3 Zrotation Yrotation Xrotation
                        JOINT RightHandPinky4
                        {
                          OFFSET -1.546529 2e-06 4e-06
                          CHANNELS 3 Zrotation Yrotation Xrotation
                          JOINT RightHandPinkyEnd
                          {
                            OFFSET -1.952341 0.0 -4e-06
                            CHANNELS 3 Zrotation Yrotation Xrotation
                          }
                        }
                      }
                    }
                  }
                }
              }
            }
          }
        }
      }
    }
    JOINT LeftLeg
    {
      OFFSET -8.443107 2.567604 10.043214
      CHANNELS 3 Zrotation Yrotation Xrotation
      JOINT LeftShin
      {
        OFFSET 43.229198 1e-06 -1e-06
        CHANNELS 3 Zrotation Yrotation Xrotation
        JOINT LeftFoot
        {
          OFFSET 42.298611 1e-06 1e-06
          CHANNELS 3 Zrotation Yrotation Xrotation
          JOINT LeftToeBase
          {
            OFFSET 14.165858 1e-06 0.0
            CHANNELS 3 Zrotation Yrotation Xrotation
            JOINT LeftToeEnd
            {
              OFFSET 6.7141 -0.234461 0.0
              CHANNELS 3 Zrotation Yrotation Xrotation
            }
          }
        }
      }
    }
    JOINT RightLeg
    {
      OFFSET -8.303923 2.592729 -10.047278
      CHANNELS 3 Zrotation Yrotation Xrotation
      JOINT RightShin
      {
        OFFSET -43.369682 0.0 1e-06
        CHANNELS 3 Zrotation Yrotation Xrotation
        JOINT RightFoot
        {
          OFFSET -42.260784 4e-06 2e-06
          CHANNELS 3 Zrotation Yrotation Xrotation
          JOINT RightToeBase
          {
            OFFSET -14.222245 -2e-06 -1e-06
            CHANNELS 3 Zrotation Yrotation Xrotation
            JOINT RightToeEnd
            {
              OFFSET -6.660062 0.232574 -2e-06
              CHANNELS 3 Zrotation Yrotation Xrotation
            }
          }
        }
      }
    }
  }
}
MOTION
Frames: 4
Frame Time: 0.03333333333333333
0.0 0.0 0.0 0.0 -0.0 0.0 12.984294 91.880959 26.409018 90.546814 2.233495 97.191963 4.349837 -0.075152 -0.66792 -9.233191 0.155311 -2.126901 14.291153 4.077321 -3.7217 27.911821 5.265864 2.652094 -2.791301 -0.843827 -3.525852 -27.5716 -3.97799 -1.68482 5e-06 -0.0 0.0 -0.100911 0.001715 -0.135378 -0.256817 0.009625 -0.14902 -0.205515 -0.004903 -0.116049 -66.492989 -72.975273 83.598808 -8.793677 -68.915131 58.668667 27.121 -0.980911 -0.075274 1.066827 29.130283 3.251262 17.636625 -26.322733 52.411205 -19.466658 -14.395596 29.410393 1e-06 -8.774821 -2e-06 16.120182 -17.32662 6.404722 -0.609777 -1.795654 -3.889329 -4.807089 -11.04681 -2.93785 4e-06 -20.976015 -0.0 -5.019969 -25.033556 -4.03188 6e-06 -1e-06 -2e-06 -10.634532 -5.68697 -3.565588 10.573271 -17.922949 -3.113899 2e-06 -13.821206 2e-06 -0.501777 -31.181498 -4.027014 -10.948298 -60.50396 8.012853 -13.982714 -7.150198 -2.875045 13.772728 -8.401489 -3.218243 0.347729 -34.211544 0.771656 -0.96303 -17.733366 2.621021 1e-06 0.0 2e-06 -17.346416 -20.095217 -4.201784 21.757557 -1.638374 3.866427 1e-06 -6.338824 0.0 -1.697589 -22.591745 -6.194005 -1e-06 -4e-06 -2e-06 71.431908 -76.076004 124.428917 -4.401792 -24.851475 -22.129349 40.339493 0.01108 1.36617 9.790215 43.627472 15.426741 22.182119 -20.375898 49.933323 -16.701815 -16.743528 28.476534 -3e-06 -12.690601 -1e-06 14.544796 -18.007242 3.152777 -0.10592 -1.513857 -4.275881 -5.039042 -5.612873 -2.953557 4e-06 -11.020525 -1e-06 -6.1113 -15.895334 -3.840471 0.0 -0.0 -0.0 -10.283373 -5.680288 -4.341838 11.028296 -11.302407 -2.372632 -1.384269 -14.238583 -6.320122 -0.625439 -26.924191 -3.8276 -4.376235 -49.455544 -3.668238 -13.708528 -7.363476 -3.720938 18.141151 -14.052742 -3.242675 7e-06 -18.787271 -2e-06 -0.429711 -8.456047 2.555504 -1e-06 0.0 -0.0 -15.923538 -20.094484 -5.473586 30.419222 -7.190827 1.735927 -0.0 -8.162927 -0.0 -1.861902 -22.861473 -6.167942 -1e-06 -2e-06 -1e-06 -173.314041 -0.872087 -9.156463 42.291595 -0.317286 0.313955 -98.401001 -1.35329 -7.360501 -16.062605 1.968333 2.26075 -0.999999 -1e-06 -0.0 -33.760242 -8.988232 -3.885479 44.268482 -0.081719 0.658788 -76.254242 2.254169 -3.609872 -6.408136 0.54108 1.620404 -1.000001 0.0 0.0 
0.0 0.0 0.0 0.0 -0.0 0.0 12.668035 92.545197 30.602234 88.456917 2.632586 95.010529 3.671188 0.348807 -0.776894 -9.572402 0.011095 -2.958939 13.906282 5.368482 -4.403815 29.964088 5.339803 2.384634 -2.747436 -0.840027 -1.57099 -23.330782 -3.983909 0.321755 5e-06 -0.0 0.0 -0.101854 -0.008889 -0.040118 -0.307704 0.037212 -0.060007 -0.248211 -0.050576 -0.017219 -51.192013 -71.301483 68.242996 -26.349993 -69.004601 80.087326 31.933115 -2.192461 -0.357701 1.639169 32.368153 7.283842 17.636627 -26.322729 52.411194 -19.46666 -14.395592 29.410381 0.0 -8.774819 -3e-06 16.41622 -17.332083 5.870207 -0.609776 -1.795653 -3.889329 -4.807088 -11.046809 -2.937851 1e-06 -20.976015 -1e-06 -5.019969 -25.033552 -4.031881 7e-06 1e-06 -1e-06 -10.634535 -5.686971 -3.56559 10.57327 -17.922947 -3.1139 2e-06 -13.821206 1e-06 -0.50178 -31.181505 -4.027016 -10.916467 -60.198452 7.777633 -13.982711 -7.150198 -2.875042 13.772725 -8.401491 -3.218243 0.347732 -34.211544 0.771659 -0.963028 -17.73337 2.62102 -2e-06 -0.0 2e-06 -17.346416 -20.095215 -4.201782 21.757555 -1.638375 3.866427 1e-06 -6.338823 -0.0 -1.697588 -22.591742 -6.194007 0.0 -3e-06 -2e-06 68.847443 -72.999435 128.481628 -5.943924 -23.247072 -23.92544 35.01012 -0.485356 0.956777 7.871677 47.436573 8.842391 22.182117 -20.375898 49.933327 -16.701817 -16.74353 28.476532 -3e-06 -12.690603 -0.0 14.348916 -17.690535 3.137724 -0.10592 -1.513856 -4.275882 -5.039041 -5.612872 -2.953557 4e-06 -11.020527 -1e-06 -6.111298 -15.895338 -3.84047 -0.0 -0.0 1e-06 -10.283371 -5.680289 -4.341839 11.028295 -11.302409 -2.372633 -1.384269 -14.238585 -6.32012 -0.625439 -26.924198 -3.827602 -4.249762 -49.872955 -3.621766 -13.708526 -7.363478 -3.720939 18.14115 -14.052742 -3.242675 5e-06 -18.787271 -2e-06 -0.429711 -8.456045 2.555503 -0.0 0.0 0.0 -15.923536 -20.094486 -5.473584 30.419214 -7.190827 1.735925 3e-06 -8.162929 -1e-06 -1.861901 -22.861479 -6.167944 -1e-06 -0.0 -1e-06 -176.531204 -5.107312 -11.961165 52.606472 -0.410295 0.363616 -88.288391 -0.205051 -7.788074 -22.549757 2.008137 2.142631 -0.999998 -0.0 -0.0 -30.826038 -5.565152 -4.199499 44.358864 -0.062636 0.551777 -78.85376 2.656741 -3.010755 -5.546504 0.539695 1.605045 -1.000001 -0.0 0.0 
0.0 0.0 0.0 0.0 -0.0 0.0 12.097946 92.905945 34.598194 86.643562 3.371517 93.791832 3.347846 0.727273 -0.925262 -9.73912 -0.209755 -3.438548 13.664047 6.313328 -5.011555 31.902973 5.58322 1.940242 -2.693554 -0.709466 -0.218456 -19.065382 -4.037177 1.769964 5e-06 -1e-06 0.0 -0.102071 -0.021961 0.010392 -0.357868 0.055362 -0.022265 -0.282983 -0.094352 0.042622 -39.367161 -69.102669 56.577415 -36.103134 -67.181999 94.233612 39.108871 -3.269065 -0.729316 2.258922 33.987949 12.925597 17.636625 -26.322729 52.411194 -19.466656 -14.395598 29.410385 -0.0 -8.774821 -2e-06 16.91153 -17.300003 5.197968 -0.609774 -1.795654 -3.889326 -4.807089 -11.046807 -2.937849 5e-06 -20.976013 -1e-06 -5.019969 -25.033548 -4.031882 5e-06 1e-06 0.0 -10.634532 -5.686969 -3.565587 10.573272 -17.922945 -3.113902 3e-06 -13.821203 1e-06 -0.501778 -31.181488 -4.027009 -10.795618 -59.842472 7.479453 -13.982712 -7.150196 -2.87504 13.77273 -8.401489 -3.21824 0.347734 -34.21154 0.771655 -0.963028 -17.733366 2.621019 -1e-06 1e-06 1e-06 -17.346418 -20.095211 -4.201779 21.757557 -1.638375 3.866427 2e-06 -6.338822 -1e-06 -1.69759 -22.591736 -6.194002 1e-06 -3e-06 -1e-06 68.781013 -69.858498 130.048981 -8.069756 -24.622812 -21.513714 29.434013 -0.426498 0.687227 4.417327 46.625549 -0.543698 22.18211 -20.375895 49.933308 -16.701809 -16.74353 28.476524 -3e-06 -12.690598 1e-06 14.732509 -17.857052 3.027999 -0.10592 -1.513857 -4.27588 -5.039038 -5.61287 -2.953556 4e-06 -11.02052 -0.0 -6.111297 -15.89533 -3.84047 -1e-06 1e-06 1e-06 -10.283367 -5.680287 -4.341836 11.028292 -11.302403 -2.372633 -1.38427 -14.238577 -6.320119 -0.625439 -26.924181 -3.827599 -4.243665 -50.715366 -3.397497 -13.708522 -7.363477 -3.720936 18.141148 -14.052736 -3.242674 5e-06 -18.787266 -0.0 -0.429712 -8.456042 2.555502 0.0 1e-06 0.0 -15.923532 -20.094482 -5.473582 30.419205 -7.190824 1.735924 2e-06 -8.162925 -1e-06 -1.861902 -22.861467 -6.167939 -1e-06 -4e-06 -0.0 178.729782 -9.960475 -13.206926 64.864098 -0.4035 0.275029 -79.630714 -1.519627 -7.720847 -17.207375 1.784317 2.149348 -0.999998 1e-06 -1e-06 -27.393353 -2.826063 -5.084961 44.379642 -0.072597 0.418263 -81.895355 2.856025 -2.133015 -5.171584 0.52927 1.60964 -1.000002 -0.0 0.0 
0.0 0.0 0.0 0.0 -0.0 0.0 11.579041 92.862152 38.270584 85.684898 4.047844 93.102234 3.111265 0.857388 -0.969499 -9.857446 -0.429295 -3.562151 13.814006 6.716526 -5.495714 33.006596 5.403471 1.607383 -2.714839 -0.555906 0.560946 -15.91802 -4.043805 2.747217 6e-06 -0.0 0.0 -0.128252 -0.020444 -0.029431 -0.336612 0.066188 -0.051145 -0.249534 -0.104665 -0.007864 -35.188778 -67.890228 52.866058 -36.966774 -64.447151 97.243797 46.824627 -3.585851 -0.990376 2.873625 34.690777 17.984205 17.636631 -26.322729 52.411179 -19.466654 -14.395597 29.410378 1e-06 -8.77482 -2e-06 17.365597 -17.422337 4.857507 -0.609776 -1.795652 -3.889326 -4.807088 -11.046811 -2.937848 3e-06 -20.976019 2e-06 -5.019972 -25.03356 -4.031881 7e-06 -0.0 1e-06 -10.634535 -5.686969 -3.565587 10.573276 -17.922947 -3.113896 3e-06 -13.821208 -2e-06 -0.501781 -31.181501 -4.027012 -10.956841 -59.733631 7.390976 -13.982714 -7.150198 -2.875042 13.772728 -8.401489 -3.218239 0.347731 -34.211552 0.771653 -0.963031 -17.733368 2.621019 0.0 2e-06 1e-06 -17.346418 -20.095211 -4.201779 21.757557 -1.638373 3.866428 1e-06 -6.338822 1e-06 -1.697591 -22.59174 -6.194004 0.0 -3e-06 -3e-06 66.459343 -66.758484 133.919235 -10.605008 -26.971199 -18.068953 24.698847 -0.387206 0.4423 1.594447 40.432884 -8.213202 22.182117 -20.375898 49.933319 -16.701813 -16.743528 28.476532 -2e-06 -12.690601 -2e-06 14.805678 -17.895844 3.0402 -0.105918 -1.513856 -4.275881 -5.03904 -5.612872 -2.953556 4e-06 -11.020525 -1e-06 -6.111297 -15.895334 -3.84047 1e-06 0.0 1e-06 -10.283371 -5.680288 -4.341838 11.028297 -11.302407 -2.372633 -1.384267 -14.238583 -6.320123 -0.62544 -26.924192 -3.827602 -4.069499 -50.334347 -3.17143 -13.708524 -7.363477 -3.720941 18.141148 -14.052739 -3.242674 6e-06 -18.78727 -1e-06 -0.429711 -8.456041 2.555506 1e-06 1e-06 1e-06 -15.923536 -20.094482 -5.473584 30.41921 -7.190827 1.735927 2e-06 -8.162927 1e-06 -1.861903 -22.861473 -6.167941 1e-06 -3e-06 -2e-06 173.612534 -13.753729 -12.540137 75.240906 -0.286019 0.118457 -76.945023 -5.537987 -7.150404 -9.322722 1.677903 2.317051 -0.999998 1e-06 1e-06 -24.630013 -1.530621 -6.358319 45.406864 -0.138676 0.359171 -85.311981 3.605185 -1.31025 -5.010769 0.509204 1.61155 -1.000001 0.0 -0.0 
